<svg xmlns="http://www.w3.org/2000/svg" viewBox="0 0 884 218"><style>.st0{display:none}.st1,.st2{display:inline;fill:#fff;stroke:url(#SVGID_1_);stroke-miterlimit:10}.st2{stroke:url(#SVGID_2_)}.st3,.st4{display:inline;fill:#f2f2f2}.st4{fill:none;stroke:#85cba8;stroke-width:3;stroke-miterlimit:10}.st5,.st6{display:inline;fill:#85cba8}.st6{fill:#231f20}.st7{font-family:&apos;OpenSans-Semibold&apos;}.st8{font-size:16px}.st9{display:inline}.st10{enable-background:new}.st11{fill:#231f20}.st12{display:inline;fill:#434343}.st13,.st14,.st15{stroke:#595a5c;stroke-miterlimit:10}.st13{stroke-width:3;fill:#fff}.st14,.st15{fill:none}.st15{stroke-width:3}.st16{fill:#595a5c}.st17{fill:#fff}.st18{fill:none;stroke:#595a5c}.st19{fill:#f2f2f2}.st20{font-family:&apos;OpenSans-Light&apos;}.st21{font-size:14.9036px}.st22,.st23{stroke:#595a5c}.st22{stroke-miterlimit:10;fill:#fff;stroke-width:1.4729}.st23{fill:none;stroke-width:.491}.st24{fill:#434343}.st25,.st26{stroke-miterlimit:10}.st25{stroke-width:3;stroke-dasharray:6,6;fill:none;stroke:#8b80bc}.st26{fill:#fff;stroke:url(#SVGID_3_)}.st27{font-family:&apos;OpenSans-Italic&apos;}.st28{font-size:14.9214px}.st29{fill:#424242}.st30{fill:none;stroke:#8b80bc;stroke-width:3;stroke-miterlimit:10}.st31{fill:url(#SVGID_4_)}.st32{font-family:&apos;OpenSans&apos;}.st33{font-size:8.7042px}.st34{fill:url(#SVGID_5_)}.st35{fill:#f1f1f2}.st36{fill:#58595b}.st37,.st38{stroke:#58595b}.st37{stroke-miterlimit:10;fill:#fff;stroke-width:.7906}.st38{fill:none;stroke-width:.2635}.st39{fill:#8b80bc}</style><g id="Layer_1" class="st0"><linearGradient id="SVGID_1_" gradientUnits="userSpaceOnUse" x1="300.255" y1="609.435" x2="680.745" y2="290.165" gradientTransform="translate(0 -356)"><stop offset="0" stop-color="#77C3E2"/><stop offset="1" stop-color="#83CAA6"/></linearGradient><path class="st1" d="M564.3 8.5h177.9v170.6H238.8V8.5h180.1"/><linearGradient id="SVGID_2_" gradientUnits="userSpaceOnUse" x1="300.255" y1="862.835" x2="680.745" y2="543.565" gradientTransform="translate(0 -356)"><stop offset="0" stop-color="#77C3E2"/><stop offset="1" stop-color="#83CAA6"/></linearGradient><path class="st2" d="M564.3 261.9h177.9v170.6H238.8V261.9h180.1"/><path class="st3" d="M406.4 420.4H257.3c-.7 0-1.3-.6-1.3-1.3V283c0-.7.6-1.3 1.3-1.3h149.1c.7 0 1.3.6 1.3 1.3v136.1c.1.7-.5 1.3-1.3 1.3zm315.1 0H572.3c-.7 0-1.3-.6-1.3-1.3V283c0-.7.6-1.3 1.3-1.3h149.1c.7 0 1.3.6 1.3 1.3v136.1c.1.7-.5 1.3-1.2 1.3z"/><path class="st4" d="M209.2 73.9H108.1"/><path class="st5" d="M113.8 73.8V82l-7.1-4-7.1-4.1 7-4.1 7.1-4.2zm93.7.1l-.1-8.2 7.2 4.1 7.1 4-7.1 4.2-7 4.1z"/><path class="st4" d="M209.2 98.1H108.1"/><path class="st5" d="M113.8 98v8.2l-7.1-4-7.1-4.1 7-4.1 7.1-4.2zm93.7.1l-.1-8.2 7.2 4.1 7.1 4-7.1 4.2-7 4.1z"/><path class="st4" d="M209.2 122.3H108.1"/><path class="st5" d="M113.8 122.2v8.2l-7.1-4-7.1-4 7-4.2 7.1-4.2zm93.7.2l-.1-8.2 7.2 4 7.1 4-7.1 4.2-7 4.1z"/><path class="st4" d="M870.6 73.9H769.4"/><path class="st5" d="M775.1 73.8l.1 8.2-7.2-4-7.1-4.1 7.1-4.1 7-4.2zm93.7.1v-8.2l7.1 4.1 7.1 4-7 4.2-7.1 4.1z"/><path class="st4" d="M870.6 98.1H769.4"/><path class="st5" d="M775.1 98l.1 8.2-7.2-4-7.1-4.1L768 94l7-4.2zm93.7.1v-8.2l7.1 4.1 7.1 4-7 4.2-7.1 4.1z"/><path class="st4" d="M870.6 122.3H769.4"/><path class="st5" d="M775.1 122.2l.1 8.2-7.2-4-7.1-4 7.1-4.2 7-4.2zm93.7.2v-8.2l7.1 4 7.1 4-7 4.2-7.1 4.1z"/><text transform="translate(6.907 155.504)" class="st6 st7 st8">HTTP 1.1</text><text transform="translate(928.691 142.635)" class="st6 st20 st8">server</text><text transform="translate(423.156 13.365)" class="st12 st7 st8">3 TCP Connections</text><path class="st4" d="M554.9 142.8H426"/><g class="st9"><path class="st13" d="M996.4 112.1H902c-.7 0-1.3-.6-1.3-1.3V81.2c0-.7.6-1.3 1.3-1.3h94.3c.7 0 1.3.6 1.3 1.3v29.6c.1.7-.5 1.3-1.2 1.3z"/><path class="st14" d="M942.3 90.4v11.2m7-11.2v11.2m6.9-11.2v11.2m7-11.2v11.2m-48.8-11.2v11.2m7-11.2v11.2m7-11.2v11.2m6.9-11.2v11.2m34.9-11.2v11.2m7-11.2v11.2m6.9-11.2v11.2"/><path class="st15" d="M914.2 117.9h69.9"/></g><g class="st9"><path class="st13" d="M77.4 127.7H3.9c-.7 0-1.3-.6-1.3-1.3V67.9c0-.7.6-1.3 1.3-1.3h73.5c.7 0 1.3.6 1.3 1.3v58.5c0 .7-.6 1.3-1.3 1.3z"/><path class="st16" d="M3 67.1h75.6v15.4H3z"/><circle class="st17" cx="13.3" cy="74.8" r="2.5"/><circle class="st17" cx="20.7" cy="74.8" r="2.5"/><circle class="st17" cx="28.1" cy="74.8" r="2.5"/><path class="st18" d="M16.6 110.5h19.8M16.6 92.9H49m-32.4 8.8H49"/></g><g class="st9"><path class="st19" d="M406.9 74.8H257.3c-.7 0-1.3-.6-1.3-1.3V36.6c0-.7.6-1.3 1.3-1.3h149.6c.7 0 1.3.6 1.3 1.3v36.9c0 .7-.6 1.3-1.3 1.3zm0 43.4H257.3c-.7 0-1.3-.6-1.3-1.3v-37c0-.7.6-1.3 1.3-1.3h149.6c.7 0 1.3.6 1.3 1.3v36.9c0 .8-.6 1.4-1.3 1.4zm0 43.7H257.3c-.7 0-1.3-.6-1.3-1.3v-36.9c0-.7.6-1.3 1.3-1.3h149.6c.7 0 1.3.6 1.3 1.3v36.9c0 .7-.6 1.3-1.3 1.3z"/><text transform="translate(312.773 147.809)" class="st16 st20 st21">image.png</text><text transform="translate(312.773 104.339)" class="st16 st20 st21">example.css</text><text transform="translate(312.773 61.181)" class="st16 st20 st21">jquery.js</text><path class="st16" d="M297.4 69.4H277c-.4 0-.7-.3-.7-.7V45.2c0-.4.3-.7.7-.7h20.4c.4 0 .7.3.7.7v23.5c0 .4-.3.7-.7.7z"/><path class="st22" d="M299.5 67.4H279c-.4 0-.7-.3-.7-.7V43c0-.4.3-.7.7-.7h20.4c.4 0 .7.3.7.7v23.7c.1.4-.3.7-.6.7z"/><path class="st23" d="M282.4 62.7h7.8m-7.8-7h12.8m-12.8 3.5h12.8m-12.8-10.4h10.5m-10.5 3.5h12.8"/><path class="st16" d="M297.4 112.5H277c-.4 0-.7-.3-.7-.7V88.3c0-.4.3-.7.7-.7h20.4c.4 0 .7.3.7.7v23.5c0 .4-.3.7-.7.7z"/><path class="st22" d="M299.5 110.6H279c-.4 0-.7-.3-.7-.7V86.1c0-.4.3-.7.7-.7h20.4c.4 0 .7.3.7.7v23.7c.1.5-.3.8-.6.8z"/><path class="st23" d="M282.4 105.9h7.8m-7.8-7h12.8m-12.8 3.5h12.8M282.4 92h10.5m-10.5 3.4h12.8"/><path class="st16" d="M303.8 154.4h-31.7c-.4 0-.7-.3-.7-.7v-23.1c0-.4.3-.7.7-.7h31.7c.4 0 .7.3.7.7v23.1c0 .4-.4.7-.7.7z"/><path class="st17" d="M273 143.2l5.5 3.8 9.2-7.7 4.1 3 3.8-3.5 7.2 5.8v8.3h-29.7z"/><circle class="st17" cx="280.1" cy="137.9" r="2.4"/></g><path class="st5" d="M431.7 142.7l.1 8.2-7.2-4-7.1-4.1 7.1-4.1 7-4.2zm118.6.1l-.1-8.1 7.1 4 7.1 4-7 4.2-7.1 4.1z"/><path class="st4" d="M554.9 99.1H426"/><path class="st5" d="M431.7 99l.1 8.1-7.2-4-7.1-4 7.1-4.2 7-4.1zm118.6.1l-.1-8.2 7.1 4 7.1 4.1-7 4.1-7.1 4.2z"/><path class="st4" d="M554.9 56.2H426"/><path class="st5" d="M431.7 56.1l.1 8.2-7.2-4-7.1-4.1 7.1-4.1 7-4.2zm118.6.1l-.1-8.2 7.1 4.1 7.1 4-7 4.2-7.1 4.1z"/><path class="st4" d="M209.2 351.5H108.1"/><path class="st5" d="M113.8 351.4v8.2l-7.1-4.1-7.1-4 7-4.2 7.1-4.1zm93.7.1l-.1-8.2 7.2 4 7.1 4.1-7.1 4.1-7 4.2z"/><path class="st4" d="M870.6 351.5H769.4"/><path class="st5" d="M775.1 351.4l.1 8.2-7.2-4.1-7.1-4 7.1-4.2 7-4.1zm93.7.1v-8.2l7.1 4 7.1 4.1-7 4.1-7.1 4.2z"/><text transform="translate(12.629 408.866)" class="st6 st7 st8">HTTP/2</text><text transform="translate(928.691 395.997)" class="st6 st20 st8">server</text><text transform="translate(426.891 266.727)" class="st12 st7 st8">1 TCP Connection</text><g class="st9"><path class="st13" d="M996.4 365.5H902c-.7 0-1.3-.6-1.3-1.3v-29.6c0-.7.6-1.3 1.3-1.3h94.3c.7 0 1.3.6 1.3 1.3v29.6c.1.7-.5 1.3-1.2 1.3z"/><path class="st14" d="M942.3 343.7v11.2m7-11.2v11.2m6.9-11.2v11.2m7-11.2v11.2m-48.8-11.2v11.2m7-11.2v11.2m7-11.2v11.2m6.9-11.2v11.2m34.9-11.2v11.2m7-11.2v11.2m6.9-11.2v11.2"/><path class="st15" d="M914.2 371.2h69.9"/></g><g class="st9"><path class="st13" d="M77.4 381.1H3.9c-.7 0-1.3-.6-1.3-1.3v-58.5c0-.7.6-1.3 1.3-1.3h73.5c.7 0 1.3.6 1.3 1.3v58.5c0 .7-.6 1.3-1.3 1.3z"/><path class="st16" d="M3 320.4h75.6v15.4H3z"/><circle class="st17" cx="13.3" cy="328.1" r="2.5"/><circle class="st17" cx="20.7" cy="328.1" r="2.5"/><circle class="st17" cx="28.1" cy="328.1" r="2.5"/><path class="st18" d="M16.6 363.9h19.8m-19.8-17.7H49m-32.4 8.9H49"/></g><text transform="translate(626.729 401.17)" class="st20 st21" fill="#595A5C">image.png</text><text transform="translate(626.729 357.701)" class="st20 st21" fill="#595A5C">example.css</text><text transform="translate(626.729 314.543)" class="st20 st21" fill="#595A5C">jquery.js</text><g class="st9"><path class="st16" d="M611.3 322.7h-20.4c-.4 0-.7-.3-.7-.7v-23.5c0-.4.3-.7.7-.7h20.4c.4 0 .7.3.7.7V322c0 .4-.3.7-.7.7z"/><path class="st22" d="M613.4 320.8H593c-.4 0-.7-.3-.7-.7v-23.7c0-.4.3-.7.7-.7h20.4c.4 0 .7.3.7.7v23.7c0 .4-.3.7-.7.7z"/><path class="st23" d="M596.4 316.1h7.8m-7.8-7h12.7m-12.7 3.5h12.7m-12.7-10.4h10.4m-10.4 3.4h12.7"/></g><g class="st9"><path class="st16" d="M611.3 365.9h-20.4c-.4 0-.7-.3-.7-.7v-23.5c0-.4.3-.7.7-.7h20.4c.4 0 .7.3.7.7v23.5c0 .4-.3.7-.7.7z"/><path class="st22" d="M613.4 363.9H593c-.4 0-.7-.3-.7-.7v-23.7c0-.4.3-.7.7-.7h20.4c.4 0 .7.3.7.7v23.7c0 .4-.3.7-.7.7z"/><path class="st23" d="M596.4 359.2h7.8m-7.8-6.9h12.7m-12.7 3.4h12.7m-12.7-10.4h10.4m-10.4 3.5h12.7"/></g><g class="st9"><path class="st16" d="M617.7 407.8H586c-.4 0-.7-.3-.7-.7V384c0-.4.3-.7.7-.7h31.7c.4 0 .7.3.7.7v23.1c0 .4-.3.7-.7.7z"/><path class="st17" d="M587 396.5l5.4 3.9 9.3-7.7 4.1 3 3.8-3.5 7.2 5.8-.1 8.2H587z"/><circle class="st17" cx="594" cy="391.3" r="2.4"/></g><text transform="translate(312.773 401.17)" class="st20 st21" fill="#595A5C">image.png</text><text transform="translate(312.773 357.701)" class="st20 st21" fill="#595A5C">example.css</text><text transform="translate(312.773 314.543)" class="st20 st21" fill="#595A5C">jquery.js</text><g class="st9"><path class="st16" d="M297.4 322.7H277c-.4 0-.7-.3-.7-.7v-23.5c0-.4.3-.7.7-.7h20.4c.4 0 .7.3.7.7V322c0 .4-.3.7-.7.7z"/><path class="st22" d="M299.5 320.8H279c-.4 0-.7-.3-.7-.7v-23.7c0-.4.3-.7.7-.7h20.4c.4 0 .7.3.7.7v23.7c.1.4-.3.7-.6.7z"/><path class="st23" d="M282.4 316.1h7.8m-7.8-7h12.8m-12.8 3.5h12.8m-12.8-10.4h10.5m-10.5 3.4h12.8"/></g><g class="st9"><path class="st16" d="M297.4 365.9H277c-.4 0-.7-.3-.7-.7v-23.5c0-.4.3-.7.7-.7h20.4c.4 0 .7.3.7.7v23.5c0 .4-.3.7-.7.7z"/><path class="st22" d="M299.5 363.9H279c-.4 0-.7-.3-.7-.7v-23.7c0-.4.3-.7.7-.7h20.4c.4 0 .7.3.7.7v23.7c.1.4-.3.7-.6.7z"/><path class="st23" d="M282.4 359.2h7.8m-7.8-6.9h12.8m-12.8 3.4h12.8m-12.8-10.4h10.5m-10.5 3.5h12.8"/></g><g class="st9"><path class="st16" d="M303.8 407.8h-31.7c-.4 0-.7-.3-.7-.7V384c0-.4.3-.7.7-.7h31.7c.4 0 .7.3.7.7v23.1c0 .4-.4.7-.7.7z"/><path class="st17" d="M273 396.5l5.5 3.9 9.2-7.7 4.1 3 3.8-3.5 7.2 5.8v8.2h-29.7z"/><circle class="st17" cx="280.1" cy="391.3" r="2.4"/></g><path class="st4" d="M555 352.4H426"/><path class="st5" d="M431.7 352.3l.1 8.2-7.2-4-7.1-4.1 7.1-4.1 7-4.2zm118.6.1l-.1-8.2 7.1 4.1 7.1 4-7 4.2-7.1 4.1z"/><g class="st9"><path class="st19" d="M721.7 74.8H572.1c-.7 0-1.3-.6-1.3-1.3V36.6c0-.7.6-1.3 1.3-1.3h149.6c.7 0 1.3.6 1.3 1.3v36.9c0 .7-.6 1.3-1.3 1.3zm0 43.4H572.1c-.7 0-1.3-.6-1.3-1.3v-37c0-.7.6-1.3 1.3-1.3h149.6c.7 0 1.3.6 1.3 1.3v36.9c0 .8-.6 1.4-1.3 1.4zm0 43.7H572.1c-.7 0-1.3-.6-1.3-1.3v-36.9c0-.7.6-1.3 1.3-1.3h149.6c.7 0 1.3.6 1.3 1.3v36.9c0 .7-.6 1.3-1.3 1.3z"/><text transform="translate(627.561 147.809)" class="st16 st20 st21">image.png</text><text transform="translate(627.561 104.339)" class="st16 st20 st21">example.css</text><text transform="translate(627.561 61.181)" class="st16 st20 st21">jquery.js</text><path class="st16" d="M612.2 69.4h-20.4c-.4 0-.7-.3-.7-.7V45.2c0-.4.3-.7.7-.7h20.4c.4 0 .7.3.7.7v23.5c0 .4-.4.7-.7.7z"/><path class="st22" d="M614.2 67.4h-20.4c-.4 0-.7-.3-.7-.7V43c0-.4.3-.7.7-.7h20.4c.4 0 .7.3.7.7v23.7c0 .4-.3.7-.7.7z"/><path class="st23" d="M597.2 62.7h7.8m-7.8-7H610m-12.8 3.5H610m-12.8-10.4h10.4m-10.4 3.5H610"/><path class="st16" d="M612.2 112.5h-20.4c-.4 0-.7-.3-.7-.7V88.3c0-.4.3-.7.7-.7h20.4c.4 0 .7.3.7.7v23.5c0 .4-.4.7-.7.7z"/><path class="st22" d="M614.2 110.6h-20.4c-.4 0-.7-.3-.7-.7V86.1c0-.4.3-.7.7-.7h20.4c.4 0 .7.3.7.7v23.7c0 .5-.3.8-.7.8z"/><path class="st23" d="M597.2 105.9h7.8m-7.8-7H610m-12.8 3.5H610M597.2 92h10.4m-10.4 3.4H610"/><path class="st16" d="M618.5 154.4h-31.7c-.4 0-.7-.3-.7-.7v-23.1c0-.4.3-.7.7-.7h31.7c.4 0 .7.3.7.7v23.1c0 .4-.3.7-.7.7z"/><path class="st17" d="M587.8 143.2l5.5 3.8 9.2-7.7 4.1 3 3.8-3.5 7.2 5.8-.1 8.3h-29.6z"/><circle class="st17" cx="594.9" cy="137.9" r="2.4"/></g></g><g id="Layer_2"><path class="st25" d="M197.6 87.7H76.2m121.4 8.4H76.2m121.4 8.7H76.2m712.9-17.1H667.8m121.3 8.4H667.8m121.3 8.7H667.8"/><linearGradient id="SVGID_3_" gradientUnits="userSpaceOnUse" x1="452.133" y1="-32.204" x2="407.527" y2="220.768"><stop offset="0" stop-color="#8B80BC"/><stop offset="1" stop-color="#8FC7DF"/></linearGradient><path class="st26" d="M497 8.9h184.8v170.8H177.9V8.9h186.7"/><text transform="translate(289.372 211.768)" class="st11 st27 st28">Single TCP Connection, Single HTTP Request</text><text transform="translate(374.54 13.752)" class="st29 st7 st28">TCP Connection</text><path class="st30" d="M340.7 63.2h174m4.1-13.1H344.7m174.1 49.1H349.7"/><path class="st17" d="M471.2 92h34.7v13.7h-34.7z"/><linearGradient id="SVGID_4_" gradientUnits="userSpaceOnUse" x1="490.051" y1="90.134" x2="486.975" y2="107.581"><stop offset="0" stop-color="#8B80BC"/><stop offset="1" stop-color="#8FC7DF"/></linearGradient><path class="st31" d="M472.8 92.6h31.5V105h-31.5z"/><text transform="translate(478.688 101.601)" class="st17 st32 st33">push</text><path class="st30" d="M518.8 143.4H349.7"/><path class="st17" d="M471.2 136.2h34.7v13.7h-34.7z"/><linearGradient id="SVGID_5_" gradientUnits="userSpaceOnUse" x1="490.051" y1="134.277" x2="486.975" y2="151.723"><stop offset="0" stop-color="#8B80BC"/><stop offset="1" stop-color="#8FC7DF"/></linearGradient><path class="st34" d="M472.8 136.8h31.5v12.4h-31.5z"/><text transform="translate(478.688 145.744)" class="st17 st32 st33">push</text><path class="st35" d="M661.9 162.1H526.4c-.4 0-.8-.3-.8-.8v-37.8c0-.4.3-.8.8-.8h135.5c.4 0 .8.3.8.8v37.8c-.1.5-.4.8-.8.8z"/><text transform="translate(581.127 148.356)" class="st36 st20 st28">image.png</text><path class="st35" d="M661.9 118.6H526.4c-.4 0-.8-.3-.8-.8V80c0-.4.3-.8.8-.8h135.5c.4 0 .8.3.8.8v37.8c-.1.5-.4.8-.8.8z"/><text transform="translate(581.127 104.835)" class="st36 st20 st28">style.css</text><path class="st35" d="M661.9 75.4H526.4c-.4 0-.8-.3-.8-.8V36.8c0-.4.3-.8.8-.8h135.5c.4 0 .8.3.8.8v37.8c-.1.4-.4.8-.8.8z"/><text transform="translate(581.127 61.626)" class="st36 st20 st28">page.html</text><path class="st36" d="M566 69.8h-21.1c-.2 0-.4-.2-.4-.4V45.3c0-.2.2-.4.4-.4H566c.2 0 .4.2.4.4v24.2c0 .2-.2.3-.4.3z"/><path class="st37" d="M568.1 67.9H547c-.2 0-.4-.2-.4-.4V43.1c0-.2.2-.4.4-.4h21.1c.2 0 .4.2.4.4v24.4c0 .2-.2.4-.4.4z"/><path class="st38" d="M550.8 63.2h7.8m-7.8-7h12.7m-12.7 3.5h12.7m-12.7-10.5h10.4m-10.4 3.5h12.7"/><path class="st36" d="M566 113h-21.1c-.2 0-.4-.2-.4-.4V88.5c0-.2.2-.4.4-.4H566c.2 0 .4.2.4.4v24.2c0 .2-.2.3-.4.3z"/><path class="st37" d="M568.1 111.1H547c-.2 0-.4-.2-.4-.4V86.3c0-.2.2-.4.4-.4h21.1c.2 0 .4.2.4.4v24.4c0 .2-.2.4-.4.4z"/><path class="st38" d="M550.8 106.4h7.8m-7.8-7h12.7m-12.7 3.5h12.7m-12.7-10.5h10.4m-10.4 3.5h12.7"/><path class="st36" d="M572.4 155H540c-.2 0-.4-.2-.4-.4v-23.8c0-.2.2-.4.4-.4h32.4c.2 0 .4.2.4.4v23.8c0 .2-.2.4-.4.4z"/><path class="st17" d="M541.3 143.7l5.5 3.8 9.2-7.7 4.1 3 3.9-3.5 7.1 5.9v8.2h-29.7z"/><circle class="st17" cx="548.4" cy="138.5" r="2.4"/><path class="st35" d="M332.6 162.1H197.1c-.4 0-.8-.3-.8-.8v-37.8c0-.4.3-.8.8-.8h135.5c.4 0 .8.3.8.8v37.8c0 .5-.4.8-.8.8z"/><text transform="translate(251.875 148.356)" class="st36 st20 st28">image.png</text><path class="st35" d="M332.6 118.6H197.1c-.4 0-.8-.3-.8-.8V80c0-.4.3-.8.8-.8h135.5c.4 0 .8.3.8.8v37.8c0 .5-.4.8-.8.8z"/><text transform="translate(251.875 104.835)" class="st36 st20 st28">style.css</text><path class="st35" d="M332.6 75.4H197.1c-.4 0-.8-.3-.8-.8V36.8c0-.4.3-.8.8-.8h135.5c.4 0 .8.3.8.8v37.8c0 .4-.4.8-.8.8z"/><text transform="translate(251.875 61.626)" class="st36 st20 st28">page.html</text><path class="st36" d="M236.8 69.8h-21.1c-.2 0-.4-.2-.4-.4V45.3c0-.2.2-.4.4-.4h21.1c.2 0 .4.2.4.4v24.2c0 .2-.2.3-.4.3z"/><path class="st37" d="M238.9 67.9h-21.1c-.2 0-.4-.2-.4-.4V43.1c0-.2.2-.4.4-.4h21.1c.2 0 .4.2.4.4v24.4c-.1.2-.2.4-.4.4z"/><path class="st38" d="M221.5 63.2h7.8m-7.8-7h12.8m-12.8 3.5h12.8m-12.8-10.5h10.4m-10.4 3.5h12.8"/><path class="st36" d="M236.8 113h-21.1c-.2 0-.4-.2-.4-.4V88.5c0-.2.2-.4.4-.4h21.1c.2 0 .4.2.4.4v24.2c0 .2-.2.3-.4.3z"/><path class="st37" d="M238.9 111.1h-21.1c-.2 0-.4-.2-.4-.4V86.3c0-.2.2-.4.4-.4h21.1c.2 0 .4.2.4.4v24.4c-.1.2-.2.4-.4.4z"/><path class="st38" d="M221.5 106.4h7.8m-7.8-7h12.8m-12.8 3.5h12.8m-12.8-10.5h10.4m-10.4 3.5h12.8"/><path class="st36" d="M243.2 155h-32.4c-.2 0-.4-.2-.4-.4v-23.8c0-.2.2-.4.4-.4h32.4c.2 0 .4.2.4.4v23.8c0 .2-.2.4-.4.4z"/><path class="st17" d="M212.1 143.7l5.4 3.8 9.3-7.7 4.1 3 3.8-3.5 7.2 5.9-.1 8.2h-29.7z"/><circle class="st17" cx="219.1" cy="138.5" r="2.4"/><path class="st39" d="M354.2 143.3v8.2l-7.1-4.1-7.1-4 7-4.2 7.1-4.1zm0-43.9v8.2l-7.1-4-7.1-4 7-4.2 7.1-4.2zm0-49.4v8.2l-7.1-4-7.1-4.1 7-4.1 7.1-4.2zm150.4 13.7l-.1-8.2 7.1 4 7.2 4-7.1 4.2-7.1 4.2z"/><text transform="translate(811.691 147.635)" class="st11 st20 st8">server</text><text transform="translate(10.691 147.635)" class="st11 st20 st8">browser</text><path class="st13" d="M879.4 112.1H785c-.7 0-1.3-.6-1.3-1.3V81.2c0-.7.6-1.3 1.3-1.3h94.3c.7 0 1.3.6 1.3 1.3v29.6c.1.7-.5 1.3-1.2 1.3z"/><path class="st14" d="M825.3 90.4v11.2m7-11.2v11.2m6.9-11.2v11.2m7-11.2v11.2m-48.8-11.2v11.2m7-11.2v11.2m7-11.2v11.2m6.9-11.2v11.2m34.9-11.2v11.2m7-11.2v11.2m6.9-11.2v11.2"/><path class="st15" d="M797.2 117.9h69.9"/><path class="st13" d="M77.4 125.7H3.9c-.7 0-1.3-.6-1.3-1.3V65.9c0-.7.6-1.3 1.3-1.3h73.5c.7 0 1.3.6 1.3 1.3v58.5c0 .7-.6 1.3-1.3 1.3z"/><path class="st16" d="M3 65.1h75.6v15.4H3z"/><circle class="st17" cx="13.3" cy="72.8" r="2.5"/><circle class="st17" cx="20.7" cy="72.8" r="2.5"/><circle class="st17" cx="28.1" cy="72.8" r="2.5"/><path class="st18" d="M16.6 108.5h19.8M16.6 90.9H49m-32.4 8.8H49"/></g></svg>