<?xml version="1.0" encoding="utf-8"?>
<!-- Generator: Adobe Illustrator 24.3.0, SVG Export Plug-In . SVG Version: 6.00 Build 0)  -->
<svg version="1.1" id="Layer_1" xmlns="http://www.w3.org/2000/svg" xmlns:xlink="http://www.w3.org/1999/xlink" x="0px" y="0px"
	 viewBox="0 0 831 488.7" style="enable-background:new 0 0 831 488.7;" xml:space="preserve">
<style type="text/css">
	.st0{fill:#858585;}
	.st1{fill:#E74E0F;}
	.st2{fill:#FFFFFF;stroke:#153156;stroke-width:3;stroke-miterlimit:10;}
	.st3{fill:#153156;}
	.st4{fill:#FFFFFF;stroke:#BBBABA;stroke-miterlimit:10;}
	.st5{fill:#D8D8D8;}
	.st6{fill:#FFFFFF;}
	.st7{fill:#00B4B2;}
</style>
<g>
	<g>
		<polygon class="st0" points="629.7,260.6 627,263.9 230.6,263.9 230.6,260.6 		"/>
	</g>
	<g>
		<polygon class="st0" points="632.1,261.6 595.9,279.4 594.5,276.5 624.3,261.9 594.6,249.6 595.8,246.6 		"/>
	</g>
</g>
<g>
	<path class="st1" d="M464.4,234.4c-0.3-0.3-0.5-0.8-0.5-1.3c0-0.5,0.2-1,0.5-1.3c0.3-0.3,0.7-0.5,1.2-0.5c0.5,0,0.9,0.2,1.2,0.5
		c0.3,0.3,0.5,0.8,0.5,1.3c0,0.5-0.2,1-0.5,1.3c-0.3,0.3-0.7,0.5-1.2,0.5C465.2,235,464.8,234.8,464.4,234.4z M464.4,246
		c-0.3-0.3-0.5-0.8-0.5-1.3c0-0.5,0.2-1,0.5-1.3c0.3-0.3,0.7-0.5,1.2-0.5c0.5,0,0.9,0.2,1.2,0.5c0.3,0.3,0.5,0.8,0.5,1.3
		c0,0.5-0.2,1-0.5,1.3c-0.3,0.3-0.7,0.5-1.2,0.5C465.2,246.5,464.8,246.3,464.4,246z"/>
	<path class="st1" d="M473,245.9c-1-0.4-1.9-0.9-2.6-1.5l1.2-1.5c0.8,0.6,1.5,1.1,2.2,1.4c0.7,0.3,1.5,0.5,2.4,0.5
		c1,0,1.8-0.2,2.3-0.7c0.5-0.5,0.8-1.1,0.8-1.8s-0.3-1.3-0.9-1.8c-0.6-0.4-1.5-0.9-2.6-1.3c-1.4-0.5-2.6-1.1-3.4-1.7
		c-0.8-0.6-1.2-1.5-1.2-2.7c0-1.2,0.5-2.3,1.4-3.1c0.9-0.8,2.2-1.2,3.8-1.2c0.9,0,1.7,0.2,2.5,0.5c0.8,0.3,1.5,0.7,2.1,1.2l-1.1,1.5
		c-0.6-0.4-1.2-0.8-1.7-1c-0.5-0.2-1.1-0.3-1.8-0.3c-1,0-1.7,0.2-2.2,0.7c-0.5,0.5-0.8,1-0.8,1.7c0,0.5,0.2,0.9,0.5,1.2
		c0.3,0.3,0.7,0.6,1.1,0.8c0.4,0.2,1.1,0.5,1.9,0.8c1.1,0.4,1.9,0.8,2.5,1.1c0.6,0.3,1.1,0.8,1.6,1.3c0.4,0.6,0.7,1.3,0.7,2.2
		c0,0.8-0.2,1.6-0.6,2.2c-0.4,0.7-1.1,1.2-1.9,1.6c-0.8,0.4-1.8,0.6-2.9,0.6C475,246.5,474,246.3,473,245.9z"/>
	<path class="st1" d="M486.3,245.2c-0.7-0.9-1-2.1-1-3.7v-8.8H483V231l2.4-0.2l0.3-4.3h1.9v4.3h4.2v1.9h-4.2v8.8
		c0,1,0.2,1.8,0.6,2.3c0.4,0.5,1,0.8,1.9,0.8c0.4,0,1-0.1,1.8-0.4l0.5,1.7c-1.1,0.4-2,0.6-2.7,0.6C488,246.5,487,246,486.3,245.2z"
		/>
	<path class="st1" d="M494.9,245.3c-0.8-0.8-1.3-1.8-1.3-3.2c0-1.7,0.8-2.9,2.3-3.8c1.5-0.9,3.9-1.5,7.2-1.9c0-1.2-0.2-2.2-0.7-2.9
		c-0.5-0.8-1.3-1.1-2.5-1.1c-1.4,0-3,0.6-4.6,1.7l-0.9-1.6c2-1.3,4-2,5.9-2c1.8,0,3.1,0.6,3.9,1.7c0.8,1.1,1.3,2.6,1.3,4.5v9.4h-1.9
		l-0.2-1.9h-0.1c-1.8,1.5-3.5,2.2-5.1,2.2C496.8,246.5,495.8,246.1,494.9,245.3z M500.9,244.1c0.7-0.3,1.5-0.9,2.3-1.6V238
		c-2.6,0.3-4.5,0.8-5.6,1.4c-1.1,0.7-1.7,1.5-1.7,2.6c0,0.9,0.3,1.5,0.8,1.9c0.5,0.4,1.2,0.6,2,0.6
		C499.5,244.6,500.2,244.4,500.9,244.1z"/>
	<path class="st1" d="M510.4,230.8h1.9l0.2,2.8h0.1c0.5-1,1.2-1.8,1.9-2.3c0.8-0.6,1.6-0.8,2.4-0.8c0.6,0,1.1,0.1,1.6,0.3l-0.4,2
		c-0.5-0.2-1-0.3-1.4-0.3c-0.7,0-1.4,0.3-2.1,0.9c-0.7,0.6-1.3,1.5-1.8,2.7v9.9h-2.3V230.8z"/>
	<path class="st1" d="M522.5,245.2c-0.7-0.9-1-2.1-1-3.7v-8.8h-2.3V231l2.4-0.2l0.3-4.3h1.9v4.3h4.2v1.9h-4.2v8.8
		c0,1,0.2,1.8,0.6,2.3c0.4,0.5,1,0.8,1.9,0.8c0.4,0,1-0.1,1.8-0.4l0.5,1.7c-1.1,0.4-2,0.6-2.7,0.6
		C524.3,246.5,523.2,246,522.5,245.2z"/>
	<path class="st1" d="M531.8,225.4h5.1c3.1,0,5.5,0.9,7.2,2.7c1.6,1.8,2.5,4.3,2.5,7.6c0,3.3-0.8,5.8-2.5,7.7
		c-1.6,1.8-4,2.8-7.1,2.8h-5.2V225.4z M536.7,244.2c2.5,0,4.3-0.7,5.6-2.2c1.2-1.5,1.9-3.6,1.9-6.3c0-2.7-0.6-4.7-1.9-6.2
		c-1.2-1.4-3.1-2.2-5.6-2.2h-2.5v16.8H536.7z"/>
	<path class="st1" d="M551.1,245.3c-0.8-0.8-1.3-1.8-1.3-3.2c0-1.7,0.8-2.9,2.3-3.8c1.5-0.9,3.9-1.5,7.2-1.9c0-1.2-0.2-2.2-0.7-2.9
		c-0.5-0.8-1.3-1.1-2.5-1.1c-1.4,0-3,0.6-4.6,1.7l-0.9-1.6c2-1.3,4-2,5.9-2c1.8,0,3.1,0.6,3.9,1.7c0.8,1.1,1.3,2.6,1.3,4.5v9.4h-1.9
		l-0.2-1.9h-0.1c-1.8,1.5-3.5,2.2-5.1,2.2C553,246.5,551.9,246.1,551.1,245.3z M557.1,244.1c0.7-0.3,1.5-0.9,2.3-1.6V238
		c-2.6,0.3-4.5,0.8-5.6,1.4c-1.1,0.7-1.7,1.5-1.7,2.6c0,0.9,0.3,1.5,0.8,1.9c0.5,0.4,1.2,0.6,2,0.6
		C555.6,244.6,556.4,244.4,557.1,244.1z"/>
	<path class="st1" d="M567.6,245.2c-0.7-0.9-1-2.1-1-3.7v-8.8h-2.3V231l2.4-0.2l0.3-4.3h1.9v4.3h4.2v1.9h-4.2v8.8
		c0,1,0.2,1.8,0.6,2.3c0.4,0.5,1,0.8,1.9,0.8c0.4,0,1-0.1,1.8-0.4l0.5,1.7c-1.1,0.4-2,0.6-2.7,0.6
		C569.3,246.5,568.2,246,567.6,245.2z"/>
	<path class="st1" d="M587.8,239h-10.5c0.1,1.8,0.7,3.2,1.7,4.2c1,1,2.2,1.5,3.7,1.5c1.3,0,2.6-0.4,3.9-1.2l0.8,1.5
		c-0.8,0.5-1.5,0.9-2.3,1.1c-0.8,0.3-1.7,0.4-2.7,0.4c-1.3,0-2.6-0.3-3.7-1c-1.1-0.6-2-1.6-2.6-2.8c-0.6-1.2-1-2.6-1-4.2
		c0-1.6,0.3-3,1-4.2c0.6-1.2,1.5-2.2,2.5-2.8c1-0.7,2.2-1,3.3-1c1.9,0,3.4,0.6,4.4,1.9c1.1,1.3,1.6,3,1.6,5.2
		C587.8,238.1,587.8,238.6,587.8,239z M585.8,237.3c0-1.6-0.3-2.9-1-3.7c-0.7-0.9-1.7-1.3-2.9-1.3c-1.1,0-2.1,0.4-3,1.3
		c-0.9,0.9-1.4,2.1-1.6,3.7H585.8z"/>
</g>
<path class="st2" d="M813.4,307.2H644.2c-5.8,0-10.5-4.7-10.5-10.5V225c0-5.8,4.7-10.5,10.5-10.5h169.2c5.8,0,10.5,4.7,10.5,10.5
	v71.7C823.9,302.5,819.1,307.2,813.4,307.2z"/>
<g>
	<path class="st3" d="M656,241.7c0.7-2.5,2-5.7,2.8-7l1.6-0.2c-0.6,1.7-1.4,4.8-1.7,6.9L656,241.7z M660.3,241.7
		c0.7-2.5,2-5.7,2.8-7l1.6-0.2c-0.6,1.7-1.4,4.8-1.7,6.9L660.3,241.7z"/>
	<path class="st3" d="M666.6,253.5c2.2-2.2,3.9-4,5.2-5.4c1.2-1.4,2.2-2.6,2.8-3.8c0.7-1.1,1-2.2,1-3.2c0-1.1-0.3-2.1-0.9-2.7
		s-1.6-1-2.8-1c-0.7,0-1.5,0.2-2.2,0.6c-0.7,0.4-1.3,1-1.9,1.7l-1.3-1.2c0.8-0.9,1.7-1.6,2.6-2.1c0.9-0.5,1.9-0.7,3-0.7
		c1.7,0,3.1,0.5,4.1,1.5c1,1,1.5,2.3,1.5,4c0,1.1-0.3,2.3-1,3.5c-0.6,1.2-1.5,2.4-2.5,3.6c-1,1.2-2.5,2.8-4.5,4.9l0.7,0
		c1.1-0.1,1.9-0.1,2.5-0.1h5.7v1.9h-12V253.5z"/>
	<path class="st3" d="M682.8,252.5c-1-1.7-1.6-4.1-1.6-7.3s0.5-5.5,1.6-7.2c1-1.7,2.5-2.5,4.4-2.5s3.3,0.8,4.4,2.5
		c1,1.7,1.6,4.1,1.6,7.2s-0.5,5.6-1.6,7.3c-1,1.7-2.5,2.6-4.4,2.6S683.9,254.2,682.8,252.5z M690,251.3c0.7-1.3,1-3.4,1-6.1
		s-0.3-4.7-1-6c-0.7-1.3-1.6-2-2.8-2s-2.1,0.7-2.8,2c-0.7,1.3-1,3.3-1,6s0.3,4.7,1,6.1c0.7,1.3,1.6,2,2.8,2S689.3,252.7,690,251.3z"
		/>
	<path class="st3" d="M695.6,253.5c2.2-2.2,3.9-4,5.2-5.4c1.2-1.4,2.2-2.6,2.8-3.8c0.7-1.1,1-2.2,1-3.2c0-1.1-0.3-2.1-0.9-2.7
		c-0.6-0.7-1.6-1-2.8-1c-0.7,0-1.5,0.2-2.2,0.6c-0.7,0.4-1.3,1-1.9,1.7l-1.3-1.2c0.8-0.9,1.7-1.6,2.6-2.1c0.9-0.5,1.9-0.7,3-0.7
		c1.7,0,3.1,0.5,4.1,1.5c1,1,1.5,2.3,1.5,4c0,1.1-0.3,2.3-1,3.5c-0.6,1.2-1.5,2.4-2.5,3.6c-1,1.2-2.5,2.8-4.5,4.9l0.7,0
		c1.1-0.1,1.9-0.1,2.5-0.1h5.7v1.9h-12V253.5z"/>
	<path class="st3" d="M711.9,252.5c-1-1.7-1.6-4.1-1.6-7.3s0.5-5.5,1.6-7.2c1-1.7,2.5-2.5,4.4-2.5c1.9,0,3.3,0.8,4.4,2.5
		c1,1.7,1.6,4.1,1.6,7.2s-0.5,5.6-1.6,7.3c-1,1.7-2.5,2.6-4.4,2.6C714.4,255.1,712.9,254.2,711.9,252.5z M719.1,251.3
		c0.7-1.3,1-3.4,1-6.1s-0.3-4.7-1-6c-0.7-1.3-1.6-2-2.8-2c-1.2,0-2.1,0.7-2.8,2c-0.7,1.3-1,3.3-1,6s0.3,4.7,1,6.1
		c0.7,1.3,1.6,2,2.8,2C717.5,253.4,718.4,252.7,719.1,251.3z"/>
	<path class="st3" d="M724.7,246.5h6.7v1.7h-6.7V246.5z"/>
	<path class="st3" d="M735.5,252.5c-1-1.7-1.6-4.1-1.6-7.3s0.5-5.5,1.6-7.2c1-1.7,2.5-2.5,4.4-2.5c1.9,0,3.3,0.8,4.4,2.5
		c1,1.7,1.6,4.1,1.6,7.2s-0.5,5.6-1.6,7.3c-1,1.7-2.5,2.6-4.4,2.6C738,255.1,736.6,254.2,735.5,252.5z M742.7,251.3
		c0.7-1.3,1-3.4,1-6.1s-0.3-4.7-1-6c-0.7-1.3-1.6-2-2.8-2c-1.2,0-2.1,0.7-2.8,2c-0.7,1.3-1,3.3-1,6s0.3,4.7,1,6.1
		c0.7,1.3,1.6,2,2.8,2C741.1,253.4,742,252.7,742.7,251.3z"/>
	<path class="st3" d="M748.3,253.5c2.2-2.2,3.9-4,5.2-5.4c1.2-1.4,2.2-2.6,2.8-3.8c0.7-1.1,1-2.2,1-3.2c0-1.1-0.3-2.1-0.9-2.7
		c-0.6-0.7-1.6-1-2.8-1c-0.7,0-1.5,0.2-2.2,0.6c-0.7,0.4-1.3,1-1.9,1.7l-1.3-1.2c0.8-0.9,1.7-1.6,2.6-2.1c0.9-0.5,1.9-0.7,3-0.7
		c1.7,0,3.1,0.5,4.1,1.5c1,1,1.5,2.3,1.5,4c0,1.1-0.3,2.3-1,3.5c-0.6,1.2-1.5,2.4-2.5,3.6c-1,1.2-2.5,2.8-4.5,4.9l0.7,0
		c1.1-0.1,1.9-0.1,2.5-0.1h5.7v1.9h-12V253.5z"/>
	<path class="st3" d="M762.9,246.5h6.7v1.7h-6.7V246.5z"/>
	<path class="st3" d="M772.2,252.9h4.3v-14.3h-3.4v-1.4c1.6-0.3,2.9-0.7,3.9-1.3h1.7v17h3.9v1.8h-10.4V252.9z"/>
	<path class="st3" d="M785.5,252.9h4.3v-14.3h-3.4v-1.4c1.6-0.3,2.9-0.7,3.9-1.3h1.7v17h3.9v1.8h-10.4V252.9z"/>
	<path class="st3" d="M798.4,241.7c0.7-2.5,2-5.7,2.8-7l1.6-0.2c-0.6,1.7-1.4,4.8-1.7,6.9L798.4,241.7z M802.8,241.7
		c0.7-2.5,2-5.7,2.8-7l1.6-0.2c-0.6,1.7-1.4,4.8-1.7,6.9L802.8,241.7z"/>
	<path class="st3" d="M661.2,270.4h1.9l4.5,11.4h-1.9l-3.5-9.3h-0.1l-1.4,3.9l-2,5.4h-1.9L661.2,270.4z"/>
	<path class="st3" d="M675.8,270.4h1.9l4.5,11.4h-1.9l-3.5-9.3h-0.1l-1.4,3.9l-2,5.4h-1.9L675.8,270.4z"/>
	<path class="st3" d="M689.2,282.7l-4.4-6.9h2.3l2,3.3c0.6,1.1,1.1,1.9,1.4,2.4h0.1l1.3-2.4l1.9-3.3h2.2l-4.3,7.1l4.7,7.3h-2.3
		l-2.2-3.5c-0.6-1-1.1-1.9-1.6-2.6h-0.1c-0.3,0.5-0.7,1.1-1,1.7l-0.5,0.9l-2.1,3.5h-2.2L689.2,282.7z"/>
	<path class="st3" d="M700.2,290c-0.9-0.4-1.7-0.8-2.5-1.4l1.1-1.4c0.7,0.6,1.4,1,2.1,1.3c0.7,0.3,1.4,0.4,2.2,0.4
		c0.9,0,1.7-0.2,2.2-0.7c0.5-0.5,0.8-1,0.8-1.7s-0.3-1.2-0.9-1.7c-0.6-0.4-1.4-0.8-2.5-1.2c-1.4-0.5-2.4-1-3.2-1.6
		c-0.8-0.6-1.2-1.4-1.2-2.5c0-1.2,0.4-2.1,1.3-2.9c0.9-0.8,2.1-1.1,3.6-1.1c0.8,0,1.6,0.1,2.3,0.4c0.7,0.3,1.4,0.7,2,1.2l-1,1.4
		c-0.6-0.4-1.1-0.7-1.6-0.9c-0.5-0.2-1.1-0.3-1.7-0.3c-0.9,0-1.6,0.2-2.1,0.6c-0.5,0.4-0.7,0.9-0.7,1.6c0,0.4,0.1,0.8,0.4,1.1
		c0.3,0.3,0.6,0.6,1,0.8c0.4,0.2,1,0.4,1.7,0.7c1,0.4,1.8,0.7,2.4,1c0.6,0.3,1.1,0.7,1.5,1.3c0.4,0.5,0.6,1.2,0.6,2.1
		c0,0.8-0.2,1.5-0.6,2.1c-0.4,0.6-1,1.1-1.8,1.5c-0.8,0.4-1.7,0.6-2.8,0.6C702.1,290.5,701.1,290.4,700.2,290z"/>
	<path class="st3" d="M712.2,288.6c-1.1-1.3-1.6-3.2-1.6-5.5c0-1.5,0.3-2.8,0.9-4s1.3-2,2.3-2.6c1-0.6,2-0.9,3.1-0.9
		c0.8,0,1.5,0.1,2.1,0.4c0.6,0.3,1.3,0.7,2,1.3l-0.1-2.5v-5.6h2.1v21.1h-1.8l-0.2-1.7h-0.1c-0.6,0.6-1.3,1.1-2.1,1.5
		c-0.8,0.4-1.5,0.6-2.4,0.6C714.7,290.5,713.3,289.9,712.2,288.6z M718.9,288.2c0.6-0.3,1.3-0.8,1.9-1.5v-7.8
		c-0.6-0.6-1.2-0.9-1.8-1.2c-0.6-0.2-1.2-0.4-1.8-0.4c-0.8,0-1.5,0.2-2.2,0.7c-0.7,0.5-1.2,1.2-1.6,2c-0.4,0.9-0.6,1.8-0.6,2.9
		c0,1.8,0.4,3.2,1.1,4.2c0.7,1,1.7,1.5,3.1,1.5C717.7,288.7,718.3,288.5,718.9,288.2z"/>
	<path class="st3" d="M727.9,279.2c-0.3-0.3-0.5-0.7-0.5-1.2c0-0.5,0.2-0.9,0.5-1.3c0.3-0.3,0.7-0.5,1.2-0.5c0.5,0,0.8,0.2,1.2,0.5
		c0.3,0.3,0.5,0.7,0.5,1.3c0,0.5-0.2,0.9-0.5,1.2c-0.3,0.3-0.7,0.5-1.2,0.5C728.6,279.7,728.2,279.6,727.9,279.2z M727.9,290.1
		c-0.3-0.3-0.5-0.7-0.5-1.2c0-0.5,0.2-0.9,0.5-1.3c0.3-0.3,0.7-0.5,1.2-0.5c0.5,0,0.8,0.2,1.2,0.5c0.3,0.3,0.5,0.7,0.5,1.3
		c0,0.5-0.2,0.9-0.5,1.2c-0.3,0.3-0.7,0.5-1.2,0.5C728.6,290.5,728.2,290.4,727.9,290.1z"/>
	<path class="st3" d="M735.6,288.6c-1.1-1.3-1.6-3.2-1.6-5.5c0-1.5,0.3-2.8,0.9-4c0.6-1.1,1.3-2,2.3-2.6c1-0.6,2-0.9,3.1-0.9
		c0.8,0,1.5,0.1,2.1,0.4c0.6,0.3,1.3,0.7,2,1.3l-0.1-2.5v-5.6h2.1v21.1h-1.8l-0.2-1.7h-0.1c-0.6,0.6-1.3,1.1-2.1,1.5
		c-0.8,0.4-1.5,0.6-2.4,0.6C738.1,290.5,736.7,289.9,735.6,288.6z M742.4,288.2c0.6-0.3,1.3-0.8,1.9-1.5v-7.8
		c-0.6-0.6-1.2-0.9-1.8-1.2c-0.6-0.2-1.2-0.4-1.8-0.4c-0.8,0-1.5,0.2-2.2,0.7c-0.7,0.5-1.2,1.2-1.6,2c-0.4,0.9-0.6,1.8-0.6,2.9
		c0,1.8,0.4,3.2,1.1,4.2c0.7,1,1.7,1.5,3.1,1.5C741.1,288.7,741.8,288.5,742.4,288.2z"/>
	<path class="st3" d="M751.7,289.5c-0.8-0.7-1.2-1.7-1.2-3c0-1.6,0.7-2.8,2.1-3.6c1.4-0.8,3.7-1.4,6.8-1.8c0-1.1-0.2-2-0.7-2.8
		c-0.5-0.7-1.3-1.1-2.4-1.1c-1.4,0-2.8,0.5-4.3,1.6l-0.9-1.5c1.9-1.3,3.7-1.9,5.6-1.9c1.7,0,2.9,0.5,3.7,1.6c0.8,1,1.2,2.5,1.2,4.3
		v8.9h-1.8l-0.2-1.7h-0.1c-1.7,1.4-3.3,2.1-4.8,2.1C753.5,290.5,752.5,290.2,751.7,289.5z M757.3,288.3c0.7-0.3,1.4-0.8,2.1-1.5
		v-4.2c-2.5,0.3-4.2,0.7-5.2,1.4c-1,0.6-1.6,1.4-1.6,2.4c0,0.8,0.2,1.4,0.7,1.8c0.5,0.4,1.1,0.6,1.9,0.6
		C755.9,288.8,756.6,288.6,757.3,288.3z"/>
	<path class="st3" d="M767.1,289.3c-0.6-0.8-0.9-2-0.9-3.5v-8.2h-2.2V276l2.2-0.1l0.3-4h1.8v4h3.9v1.8h-3.9v8.3
		c0,0.9,0.2,1.7,0.5,2.1c0.3,0.5,0.9,0.7,1.8,0.7c0.4,0,1-0.1,1.7-0.4l0.4,1.6c-1.1,0.4-1.9,0.5-2.6,0.5
		C768.8,290.5,767.8,290.1,767.1,289.3z"/>
	<path class="st3" d="M786.1,283.5h-9.9c0.1,1.7,0.6,3,1.6,3.9c0.9,0.9,2.1,1.4,3.4,1.4c1.3,0,2.5-0.4,3.6-1.2l0.8,1.4
		c-0.7,0.5-1.4,0.8-2.2,1.1c-0.7,0.3-1.6,0.4-2.5,0.4c-1.3,0-2.4-0.3-3.4-0.9c-1-0.6-1.9-1.5-2.5-2.6c-0.6-1.1-0.9-2.5-0.9-4
		c0-1.5,0.3-2.8,0.9-4c0.6-1.1,1.4-2,2.4-2.6c1-0.6,2-0.9,3.1-0.9c1.8,0,3.2,0.6,4.1,1.8c1,1.2,1.5,2.8,1.5,4.9
		C786.2,282.7,786.1,283.2,786.1,283.5z M784.2,281.9c0-1.5-0.3-2.7-1-3.5c-0.7-0.8-1.6-1.2-2.7-1.2c-1.1,0-2,0.4-2.8,1.2
		c-0.8,0.8-1.3,2-1.5,3.5H784.2z"/>
</g>
<g>
	<g>
		<circle class="st4" cx="230.7" cy="258.7" r="223.8"/>
		<path class="st4" d="M230.7,482.8c-30.2,0-59.6-5.9-87.2-17.6c-26.7-11.3-50.6-27.4-71.2-48c-20.6-20.6-36.7-44.5-48-71.2
			c-11.7-27.6-17.6-57-17.6-87.2s5.9-59.6,17.6-87.2c11.3-26.7,27.4-50.6,48-71.2c20.6-20.6,44.5-36.7,71.2-48
			c27.6-11.7,57-17.6,87.2-17.6c30.2,0,59.6,5.9,87.2,17.6c26.7,11.3,50.6,27.4,71.2,48c20.6,20.6,36.7,44.5,48,71.2
			c11.7,27.6,17.6,57,17.6,87.2s-5.9,59.6-17.6,87.2c-11.3,26.7-27.4,50.6-48,71.2c-20.6,20.6-44.5,36.7-71.2,48
			C290.2,476.8,260.9,482.8,230.7,482.8z M259.8,37C113.8,18.5-9.6,141.9,9,287.9c12.7,99.5,93,179.9,192.6,192.6
			c146,18.6,269.4-104.8,250.8-250.8C439.7,130.1,359.3,49.7,259.8,37z"/>
	</g>
	<g>
		<circle class="st5" cx="230.7" cy="258.7" r="214.8"/>
		<path class="st5" d="M230.7,473.8c-29,0-57.2-5.7-83.7-16.9c-25.6-10.8-48.6-26.3-68.3-46.1C58.9,391,43.4,368,32.6,342.4
			c-11.2-26.5-16.9-54.7-16.9-83.7s5.7-57.2,16.9-83.7c10.8-25.6,26.3-48.6,46.1-68.3C98.4,87,121.4,71.5,147,60.6
			c26.5-11.2,54.7-16.9,83.7-16.9c29,0,57.2,5.7,83.7,16.9C340,71.5,363,87,382.7,106.7c19.7,19.7,35.2,42.7,46.1,68.3
			c11.2,26.5,16.9,54.7,16.9,83.7s-5.7,57.2-16.9,83.7c-10.8,25.6-26.3,48.6-46.1,68.3C363,430.5,340,446,314.4,456.9
			C287.9,468.1,259.7,473.8,230.7,473.8z M258.6,46C118.5,28.1,0.1,146.5,17.9,286.7c12.1,95.5,89.3,172.7,184.8,184.8
			c140.2,17.8,258.6-100.6,240.8-240.8C431.3,135.2,354.2,58.1,258.6,46z"/>
	</g>
</g>
<g>
	<g>
		<polygon class="st0" points="310.8,258.9 308.2,262.1 84.6,262.1 84.6,258.9 		"/>
	</g>
	<g>
		<polygon class="st0" points="313.3,259.9 277.1,277.6 275.7,274.7 305.4,260.1 275.7,247.8 277,244.8 		"/>
	</g>
</g>
<g>
	<circle class="st4" cx="377" cy="260.9" r="63"/>
</g>
<g>
	<circle class="st3" cx="377" cy="260.9" r="57.8"/>
	<path class="st6" d="M377,318.8c-15.5,0-30-6-40.9-16.9c-10.9-10.9-16.9-25.5-16.9-40.9c0-15.5,6-30,16.9-40.9
		c10.9-10.9,25.5-16.9,40.9-16.9c15.5,0,30,6,40.9,16.9c10.9,10.9,16.9,25.5,16.9,40.9c0,15.5-6,30-16.9,40.9
		C407,312.7,392.5,318.8,377,318.8z M377,203.2c-31.8,0-57.7,25.9-57.7,57.7s25.9,57.7,57.7,57.7s57.7-25.9,57.7-57.7
		S408.8,203.2,377,203.2z"/>
</g>
<g>
	<path class="st6" d="M327,256.9c-0.3-0.3-0.5-0.8-0.5-1.3c0-0.5,0.2-1,0.5-1.3c0.3-0.3,0.7-0.5,1.2-0.5c0.5,0,0.9,0.2,1.2,0.5
		c0.3,0.3,0.5,0.8,0.5,1.3c0,0.5-0.2,1-0.5,1.3c-0.3,0.3-0.7,0.5-1.2,0.5C327.7,257.4,327.3,257.2,327,256.9z M327,268.4
		c-0.3-0.3-0.5-0.8-0.5-1.3c0-0.5,0.2-1,0.5-1.3c0.3-0.3,0.7-0.5,1.2-0.5c0.5,0,0.9,0.2,1.2,0.5c0.3,0.3,0.5,0.8,0.5,1.3
		c0,0.5-0.2,1-0.5,1.3c-0.3,0.3-0.7,0.5-1.2,0.5C327.7,268.9,327.3,268.7,327,268.4z"/>
	<path class="st6" d="M332.7,253.3h2.4l2.4,9.1l0.3,1.4c0.3,1.3,0.5,2.2,0.6,2.9h0.1c0.4-1.6,0.8-3,1.1-4.2l2.5-9.1h2.3l2.5,9.1
		l1.1,4.2h0.1l1-4.2l2.3-9.1h2.2l-4.2,15.3h-2.8l-2.3-8.5l-0.6-2.5c0-0.2-0.2-0.8-0.4-1.9h-0.1c-0.5,2.1-0.8,3.6-1.1,4.4l-2.3,8.5
		h-2.7L332.7,253.3z"/>
	<path class="st6" d="M359.2,268c-1.1-0.6-1.9-1.6-2.6-2.8c-0.6-1.2-1-2.6-1-4.3c0-1.6,0.3-3.1,1-4.3c0.6-1.2,1.5-2.1,2.6-2.8
		c1.1-0.6,2.2-1,3.5-1c1.3,0,2.4,0.3,3.5,1c1.1,0.6,1.9,1.6,2.6,2.8c0.6,1.2,1,2.6,1,4.3c0,1.6-0.3,3.1-1,4.3
		c-0.6,1.2-1.5,2.1-2.6,2.8c-1.1,0.6-2.2,1-3.5,1C361.5,268.9,360.3,268.6,359.2,268z M365.1,266.2c0.7-0.5,1.3-1.2,1.7-2.1
		s0.6-2,0.6-3.2c0-1.2-0.2-2.3-0.6-3.2c-0.4-0.9-0.9-1.6-1.7-2.2c-0.7-0.5-1.5-0.8-2.4-0.8s-1.7,0.3-2.4,0.8
		c-0.7,0.5-1.2,1.2-1.6,2.2c-0.4,0.9-0.6,2-0.6,3.2c0,1.8,0.4,3.3,1.3,4.4c0.9,1.1,2,1.7,3.3,1.7C363.6,267,364.4,266.7,365.1,266.2
		z"/>
	<path class="st6" d="M373.9,253.3h1.9l0.2,2.3h0.1c1.6-1.8,3.2-2.6,4.8-2.6c2.2,0,3.6,1,4.2,3c0.9-1,1.7-1.7,2.5-2.2
		c0.8-0.5,1.7-0.8,2.5-0.8c3.1,0,4.6,2,4.6,5.9v9.7h-2.3v-9.4c0-1.5-0.2-2.5-0.7-3.2c-0.5-0.7-1.2-1-2.3-1c-1.2,0-2.5,0.8-4,2.5
		v11.2h-2.3v-9.4c0-1.4-0.2-2.5-0.7-3.2c-0.5-0.7-1.2-1-2.2-1c-1.2,0-2.5,0.8-4,2.5v11.2h-2.3V253.3z"/>
	<path class="st6" d="M400.1,267.8c-0.8-0.8-1.3-1.8-1.3-3.2c0-1.7,0.8-2.9,2.3-3.8c1.5-0.9,3.9-1.5,7.2-1.9c0-1.2-0.2-2.2-0.7-2.9
		c-0.5-0.8-1.3-1.1-2.5-1.1c-1.4,0-3,0.6-4.6,1.7l-0.9-1.6c2-1.3,4-2,5.9-2c1.8,0,3.1,0.6,3.9,1.7c0.8,1.1,1.3,2.6,1.3,4.5v9.4h-1.9
		l-0.2-1.9h-0.1c-1.8,1.5-3.5,2.2-5.1,2.2C402,268.9,401,268.5,400.1,267.8z M406.1,266.5c0.7-0.3,1.5-0.9,2.3-1.6v-4.5
		c-2.6,0.3-4.5,0.8-5.6,1.4c-1.1,0.7-1.7,1.5-1.7,2.6c0,0.9,0.3,1.5,0.8,1.9c0.5,0.4,1.2,0.6,2,0.6
		C404.7,267.1,405.4,266.9,406.1,266.5z"/>
	<path class="st6" d="M415.6,253.3h1.9l0.2,2.3h0.1c0.8-0.8,1.7-1.5,2.5-2c0.8-0.5,1.7-0.7,2.7-0.7c1.6,0,2.8,0.5,3.5,1.5
		c0.8,1,1.1,2.5,1.1,4.5v9.7h-2.3v-9.4c0-1.5-0.2-2.5-0.7-3.2c-0.5-0.7-1.2-1-2.3-1c-0.8,0-1.5,0.2-2.1,0.6c-0.7,0.4-1.4,1-2.3,1.9
		v11.2h-2.3V253.3z"/>
</g>
<g>
	<circle class="st4" cx="72.9" cy="259.6" r="51.5"/>
	<path class="st4" d="M72.9,311.2c-7,0-13.7-1.4-20.1-4.1c-6.1-2.6-11.7-6.3-16.4-11.1c-4.7-4.7-8.5-10.3-11.1-16.4
		c-2.7-6.4-4.1-13.1-4.1-20.1c0-7,1.4-13.7,4.1-20.1c2.6-6.1,6.3-11.7,11.1-16.4c4.7-4.7,10.3-8.5,16.4-11.1
		c6.4-2.7,13.1-4.1,20.1-4.1c7,0,13.7,1.4,20.1,4.1c6.1,2.6,11.7,6.3,16.4,11.1c4.7,4.7,8.5,10.3,11.1,16.4
		c2.7,6.4,4.1,13.1,4.1,20.1c0,7-1.4,13.7-4.1,20.1c-2.6,6.1-6.3,11.7-11.1,16.4c-4.7,4.7-10.3,8.5-16.4,11.1
		C86.6,309.8,79.8,311.2,72.9,311.2z M79.6,208.5c-33.6-4.3-62,24.1-57.8,57.8c2.9,22.9,21.4,41.4,44.3,44.3
		c33.6,4.3,62-24.1,57.8-57.8C121,229.9,102.5,211.4,79.6,208.5z"/>
</g>
<g>
	<circle class="st7" cx="72.9" cy="259.6" r="44.6"/>
</g>
<g>
	<path class="st6" d="M42.4,255.5c-0.3-0.3-0.5-0.8-0.5-1.3c0-0.5,0.2-1,0.5-1.3c0.3-0.3,0.7-0.5,1.2-0.5c0.5,0,0.9,0.2,1.2,0.5
		c0.3,0.3,0.5,0.8,0.5,1.3c0,0.5-0.2,1-0.5,1.3c-0.3,0.3-0.7,0.5-1.2,0.5C43.2,256.1,42.8,255.9,42.4,255.5z M42.4,267.1
		c-0.3-0.3-0.5-0.8-0.5-1.3c0-0.5,0.2-1,0.5-1.3c0.3-0.3,0.7-0.5,1.2-0.5c0.5,0,0.9,0.2,1.2,0.5c0.3,0.3,0.5,0.8,0.5,1.3
		c0,0.5-0.2,1-0.5,1.3c-0.3,0.3-0.7,0.5-1.2,0.5C43.2,267.6,42.8,267.4,42.4,267.1z"/>
	<path class="st6" d="M50.1,251.9H52l0.2,2.3h0.1c1.6-1.8,3.2-2.6,4.8-2.6c2.2,0,3.6,1,4.2,3c0.9-1,1.7-1.7,2.5-2.2
		c0.8-0.5,1.7-0.8,2.5-0.8c3.1,0,4.6,2,4.6,5.9v9.7h-2.3v-9.4c0-1.5-0.2-2.5-0.7-3.2c-0.5-0.7-1.2-1-2.3-1c-1.2,0-2.5,0.8-4,2.5
		v11.2h-2.3v-9.4c0-1.4-0.2-2.5-0.7-3.2c-0.5-0.7-1.2-1-2.2-1c-1.2,0-2.5,0.8-4,2.5v11.2h-2.3V251.9z"/>
	<path class="st6" d="M76.3,266.4c-0.8-0.8-1.3-1.8-1.3-3.2c0-1.7,0.8-2.9,2.3-3.8c1.5-0.9,3.9-1.5,7.2-1.9c0-1.2-0.2-2.2-0.7-2.9
		c-0.5-0.8-1.3-1.1-2.5-1.1c-1.4,0-3,0.6-4.6,1.7l-0.9-1.6c2-1.3,4-2,5.9-2c1.8,0,3.1,0.6,3.9,1.7c0.8,1.1,1.3,2.6,1.3,4.5v9.4H85
		l-0.2-1.9h-0.1c-1.8,1.5-3.5,2.2-5.1,2.2C78.2,267.6,77.2,267.2,76.3,266.4z M82.3,265.2c0.7-0.3,1.5-0.9,2.3-1.6v-4.5
		c-2.6,0.3-4.5,0.8-5.6,1.4c-1.1,0.7-1.7,1.5-1.7,2.6c0,0.9,0.3,1.5,0.8,1.9c0.5,0.4,1.2,0.6,2,0.6
		C80.9,265.7,81.6,265.5,82.3,265.2z"/>
	<path class="st6" d="M91.9,251.9h1.9l0.2,2.3H94c0.8-0.8,1.7-1.5,2.5-2c0.8-0.5,1.7-0.7,2.7-0.7c1.6,0,2.8,0.5,3.5,1.5
		c0.8,1,1.1,2.5,1.1,4.5v9.7h-2.3v-9.4c0-1.5-0.2-2.5-0.7-3.2c-0.5-0.7-1.2-1-2.3-1c-0.8,0-1.5,0.2-2.1,0.6c-0.7,0.4-1.4,1-2.3,1.9
		v11.2h-2.3V251.9z"/>
</g>
<g>
	<g>
		<path class="st1" d="M128.5,224.5c-0.3-0.3-0.5-0.8-0.5-1.3c0-0.5,0.2-1,0.5-1.3c0.3-0.3,0.7-0.5,1.2-0.5c0.5,0,0.9,0.2,1.2,0.5
			c0.3,0.3,0.5,0.8,0.5,1.3c0,0.5-0.2,1-0.5,1.3c-0.3,0.3-0.7,0.5-1.2,0.5C129.2,225,128.8,224.8,128.5,224.5z M128.5,236
			c-0.3-0.3-0.5-0.8-0.5-1.3c0-0.5,0.2-1,0.5-1.3c0.3-0.3,0.7-0.5,1.2-0.5c0.5,0,0.9,0.2,1.2,0.5c0.3,0.3,0.5,0.8,0.5,1.3
			c0,0.5-0.2,1-0.5,1.3c-0.3,0.3-0.7,0.5-1.2,0.5C129.2,236.5,128.8,236.3,128.5,236z"/>
		<path class="st1" d="M136.2,213.7h2.3v6.2l-0.1,3.2c0.8-0.8,1.7-1.5,2.5-1.9c0.8-0.5,1.7-0.7,2.6-0.7c1.6,0,2.8,0.5,3.5,1.5
			c0.8,1,1.1,2.5,1.1,4.5v9.7h-2.3v-9.4c0-1.5-0.2-2.5-0.7-3.2c-0.5-0.7-1.2-1-2.3-1c-0.8,0-1.5,0.2-2.1,0.6c-0.7,0.4-1.4,1-2.3,1.9
			v11.2h-2.3V213.7z"/>
		<path class="st1" d="M153.4,235.4c-0.8-0.8-1.3-1.8-1.3-3.2c0-1.7,0.8-2.9,2.3-3.8c1.5-0.9,3.9-1.5,7.2-1.9c0-1.2-0.2-2.2-0.7-2.9
			c-0.5-0.8-1.3-1.1-2.5-1.1c-1.4,0-3,0.6-4.6,1.7l-0.9-1.6c2-1.3,4-2,5.9-2c1.8,0,3.1,0.6,3.9,1.7c0.8,1.1,1.3,2.6,1.3,4.5v9.4H162
			l-0.2-1.9h-0.1c-1.8,1.5-3.5,2.2-5.1,2.2C155.3,236.5,154.2,236.1,153.4,235.4z M159.4,234.1c0.7-0.3,1.5-0.9,2.3-1.6V228
			c-2.6,0.3-4.5,0.8-5.6,1.4c-1.1,0.7-1.7,1.5-1.7,2.6c0,0.9,0.3,1.5,0.8,1.9c0.5,0.4,1.2,0.6,2,0.6
			C158,234.7,158.7,234.5,159.4,234.1z"/>
		<path class="st1" d="M169.8,235.9c-1-0.4-1.9-0.9-2.6-1.5l1.2-1.5c0.8,0.6,1.5,1.1,2.2,1.4c0.7,0.3,1.5,0.5,2.4,0.5
			c1,0,1.8-0.2,2.3-0.7c0.5-0.5,0.8-1.1,0.8-1.8c0-0.7-0.3-1.3-0.9-1.8c-0.6-0.4-1.5-0.9-2.6-1.3c-1.4-0.5-2.6-1.1-3.4-1.7
			s-1.2-1.5-1.2-2.7c0-1.2,0.5-2.3,1.4-3.1c0.9-0.8,2.2-1.2,3.8-1.2c0.9,0,1.7,0.2,2.5,0.5c0.8,0.3,1.5,0.7,2.1,1.2l-1.1,1.5
			c-0.6-0.4-1.2-0.8-1.7-1c-0.5-0.2-1.1-0.3-1.8-0.3c-1,0-1.7,0.2-2.2,0.7c-0.5,0.5-0.8,1-0.8,1.7c0,0.5,0.2,0.9,0.5,1.2
			c0.3,0.3,0.7,0.6,1.1,0.8c0.4,0.2,1.1,0.5,1.9,0.8c1.1,0.4,1.9,0.8,2.5,1.1c0.6,0.3,1.1,0.8,1.6,1.3c0.4,0.6,0.7,1.3,0.7,2.2
			c0,0.8-0.2,1.6-0.6,2.2c-0.4,0.7-1.1,1.2-1.9,1.6c-0.8,0.4-1.8,0.6-2.9,0.6C171.8,236.5,170.8,236.3,169.8,235.9z"/>
		<path class="st1" d="M183.9,235.7c-1.2-0.5-2.3-1.3-3.2-2.3l1.4-1.6c0.8,0.8,1.6,1.5,2.6,1.9c1,0.5,2.1,0.7,3.1,0.7
			c1.4,0,2.5-0.3,3.3-1c0.8-0.7,1.2-1.5,1.2-2.6c0-0.7-0.1-1.3-0.4-1.7c-0.3-0.5-0.7-0.8-1.1-1.1c-0.5-0.3-1.1-0.6-2-1l-3-1.3
			c-1.2-0.5-2.2-1.2-3-2c-0.8-0.8-1.2-1.9-1.2-3.3c0-1,0.3-2,0.8-2.8c0.5-0.8,1.3-1.5,2.3-1.9c1-0.5,2.1-0.7,3.3-0.7
			s2.3,0.2,3.4,0.7s1.9,1.1,2.7,1.9l-1.3,1.5c-1.4-1.3-2.9-2-4.8-2c-1.2,0-2.2,0.3-2.9,0.9c-0.7,0.6-1.1,1.4-1.1,2.3
			c0,0.7,0.2,1.2,0.5,1.6c0.3,0.4,0.7,0.8,1.2,1c0.4,0.3,1,0.5,1.8,0.9l3,1.3c1.4,0.6,2.4,1.3,3.2,2.1c0.7,0.8,1.1,2,1.1,3.4
			c0,1.1-0.3,2.1-0.8,3s-1.4,1.6-2.4,2.1c-1,0.5-2.3,0.8-3.6,0.8C186.4,236.5,185.1,236.2,183.9,235.7z"/>
		<path class="st1" d="M198.7,220.9h1.9l0.2,1.8h0.1c1.8-1.5,3.4-2.2,4.9-2.2c2,0,3.4,0.7,4.5,2.1c1,1.4,1.6,3.3,1.6,5.7
			c0,1.7-0.3,3.1-0.9,4.4c-0.6,1.2-1.4,2.2-2.4,2.9c-1,0.7-2.1,1-3.3,1c-1.4,0-2.8-0.6-4.3-1.8l0.1,2.7v5.3h-2.3V220.9z
			 M207.2,233.8c0.7-0.5,1.3-1.2,1.7-2.2c0.4-0.9,0.6-2,0.6-3.3c0-1.8-0.3-3.3-1-4.3c-0.7-1-1.7-1.6-3.2-1.6c-1.3,0-2.7,0.7-4.3,2.2
			v8.2c0.7,0.6,1.4,1,2,1.3c0.7,0.3,1.3,0.4,1.9,0.4C205.7,234.6,206.5,234.3,207.2,233.8z"/>
		<path class="st1" d="M218.4,235.6c-1.1-0.6-1.9-1.6-2.6-2.8c-0.6-1.2-1-2.6-1-4.3c0-1.6,0.3-3.1,1-4.3c0.6-1.2,1.5-2.1,2.6-2.8
			c1.1-0.6,2.2-1,3.5-1c1.3,0,2.4,0.3,3.5,1c1.1,0.6,1.9,1.6,2.6,2.8c0.6,1.2,1,2.6,1,4.3c0,1.6-0.3,3.1-1,4.3
			c-0.6,1.2-1.5,2.1-2.6,2.8c-1.1,0.6-2.2,1-3.5,1C220.6,236.5,219.5,236.2,218.4,235.6z M224.3,233.8c0.7-0.5,1.3-1.2,1.7-2.1
			c0.4-0.9,0.6-2,0.6-3.2c0-1.2-0.2-2.3-0.6-3.2c-0.4-0.9-0.9-1.6-1.7-2.2c-0.7-0.5-1.5-0.8-2.4-0.8c-0.9,0-1.7,0.3-2.4,0.8
			c-0.7,0.5-1.2,1.2-1.6,2.2c-0.4,0.9-0.6,2-0.6,3.2c0,1.8,0.4,3.3,1.3,4.4c0.9,1.1,2,1.7,3.3,1.7
			C222.8,234.6,223.6,234.3,224.3,233.8z"/>
		<path class="st1" d="M234,235c-0.8-1-1.1-2.5-1.1-4.5v-9.7h2.3v9.4c0,1.5,0.2,2.5,0.7,3.2c0.5,0.7,1.3,1,2.3,1
			c0.8,0,1.5-0.2,2.1-0.6c0.6-0.4,1.4-1.1,2.2-2.1v-10.9h2.3v15.3h-1.9l-0.2-2.4h-0.1c-0.8,0.9-1.6,1.6-2.4,2.1
			c-0.8,0.5-1.7,0.7-2.7,0.7C235.9,236.5,234.7,236,234,235z"/>
		<path class="st1" d="M250.9,235.9c-1-0.4-1.9-0.9-2.6-1.5l1.2-1.5c0.8,0.6,1.5,1.1,2.2,1.4c0.7,0.3,1.5,0.5,2.4,0.5
			c1,0,1.8-0.2,2.3-0.7c0.5-0.5,0.8-1.1,0.8-1.8c0-0.7-0.3-1.3-0.9-1.8c-0.6-0.4-1.5-0.9-2.6-1.3c-1.4-0.5-2.6-1.1-3.4-1.7
			s-1.2-1.5-1.2-2.7c0-1.2,0.5-2.3,1.4-3.1c0.9-0.8,2.2-1.2,3.8-1.2c0.9,0,1.7,0.2,2.5,0.5c0.8,0.3,1.5,0.7,2.1,1.2l-1.1,1.5
			c-0.6-0.4-1.2-0.8-1.7-1c-0.5-0.2-1.1-0.3-1.8-0.3c-1,0-1.7,0.2-2.2,0.7c-0.5,0.5-0.8,1-0.8,1.7c0,0.5,0.2,0.9,0.5,1.2
			c0.3,0.3,0.7,0.6,1.1,0.8c0.4,0.2,1.1,0.5,1.9,0.8c1.1,0.4,1.9,0.8,2.5,1.1c0.6,0.3,1.1,0.8,1.6,1.3c0.4,0.6,0.7,1.3,0.7,2.2
			c0,0.8-0.2,1.6-0.6,2.2c-0.4,0.7-1.1,1.2-1.9,1.6c-0.8,0.4-1.8,0.6-2.9,0.6C252.9,236.5,251.9,236.3,250.9,235.9z"/>
		<path class="st1" d="M274.7,229h-10.5c0.1,1.8,0.7,3.2,1.7,4.2c1,1,2.2,1.5,3.7,1.5c1.3,0,2.6-0.4,3.9-1.2l0.8,1.5
			c-0.8,0.5-1.5,0.9-2.3,1.1c-0.8,0.3-1.7,0.4-2.7,0.4c-1.3,0-2.6-0.3-3.7-1c-1.1-0.6-2-1.6-2.6-2.8c-0.6-1.2-1-2.6-1-4.2
			c0-1.6,0.3-3,1-4.2c0.6-1.2,1.5-2.2,2.5-2.8c1-0.7,2.2-1,3.3-1c1.9,0,3.4,0.6,4.4,1.9c1.1,1.3,1.6,3,1.6,5.2
			C274.8,228.2,274.7,228.6,274.7,229z M272.7,227.4c0-1.6-0.3-2.9-1-3.7c-0.7-0.9-1.7-1.3-2.9-1.3c-1.1,0-2.1,0.4-3,1.3
			c-0.9,0.9-1.4,2.1-1.6,3.7H272.7z"/>
	</g>
</g>
<g>
	<g>
		<path class="st1" d="M147.8,30.2c-0.4-0.2-0.7-0.5-0.9-1c-0.2-0.5-0.2-0.9,0-1.4c0.2-0.4,0.5-0.7,0.9-0.9c0.4-0.2,0.9-0.1,1.3,0.1
			c0.4,0.2,0.7,0.6,0.9,1c0.2,0.5,0.2,0.9,0,1.3c-0.2,0.4-0.5,0.7-0.9,0.9C148.6,30.4,148.2,30.4,147.8,30.2z M151.5,40.6
			c-0.4-0.2-0.7-0.5-0.9-1c-0.2-0.5-0.2-0.9,0-1.4c0.2-0.4,0.5-0.7,0.9-0.9c0.4-0.2,0.9-0.1,1.3,0.1c0.4,0.2,0.7,0.6,0.9,1
			c0.2,0.5,0.2,0.9,0,1.3c-0.2,0.4-0.5,0.7-0.9,0.9C152.4,40.8,152,40.8,151.5,40.6z"/>
		<path class="st1" d="M159.1,37.8c-1-0.1-2-0.3-2.8-0.6l0.6-1.7c0.9,0.3,1.7,0.5,2.4,0.6c0.7,0.1,1.5,0,2.3-0.3
			c0.9-0.3,1.6-0.7,1.9-1.3c0.4-0.6,0.4-1.2,0.2-1.9c-0.2-0.7-0.7-1.1-1.4-1.3c-0.7-0.2-1.6-0.4-2.8-0.4c-1.5-0.1-2.7-0.3-3.6-0.6
			c-0.9-0.3-1.6-1-1.9-2.1c-0.4-1.1-0.2-2.2,0.4-3.2s1.7-1.7,3.1-2.2c0.8-0.2,1.6-0.3,2.4-0.3c0.8,0.1,1.6,0.2,2.3,0.5l-0.6,1.7
			c-0.7-0.2-1.3-0.4-1.9-0.4c-0.6-0.1-1.1,0-1.7,0.2c-0.9,0.3-1.5,0.7-1.8,1.3c-0.3,0.6-0.4,1.1-0.2,1.7c0.1,0.4,0.4,0.7,0.8,1
			c0.4,0.2,0.8,0.4,1.3,0.4c0.5,0.1,1.1,0.1,1.9,0.2c1.1,0.1,2,0.1,2.6,0.3c0.6,0.1,1.3,0.4,1.8,0.8c0.6,0.4,1,1,1.2,1.8
			c0.2,0.7,0.3,1.5,0.1,2.2c-0.2,0.7-0.6,1.4-1.3,2c-0.6,0.6-1.5,1.1-2.5,1.4C161.1,37.8,160.1,37.9,159.1,37.8z"/>
		<path class="st1" d="M170.9,33.6c-0.8-0.6-1.4-1.7-1.8-3.2l-2.2-8.1l-2.1,0.6l-0.4-1.6l2.2-0.7l-0.8-4.1l1.8-0.5l1.1,4l3.9-1
			l0.5,1.8l-3.9,1l2.2,8.2c0.2,0.9,0.6,1.6,1.1,2c0.5,0.4,1.1,0.5,1.9,0.2c0.4-0.1,0.9-0.4,1.5-0.8l0.9,1.5c-1,0.6-1.8,1-2.4,1.2
			C172.8,34.4,171.7,34.2,170.9,33.6z"/>
		<path class="st1" d="M178.7,31.7c-0.9-0.5-1.5-1.5-1.8-2.7c-0.3-1.6,0.1-2.9,1.4-4c1.2-1.1,3.4-2.2,6.4-3.2
			c-0.2-1.1-0.7-2-1.3-2.6c-0.6-0.6-1.5-0.8-2.6-0.6c-1.4,0.3-2.7,1.1-4,2.5l-1.2-1.3c1.6-1.7,3.3-2.7,5.2-3.1c1.7-0.4,3-0.1,4,0.8
			c1,0.9,1.7,2.2,2.1,4l1.9,8.9l-1.8,0.4l-0.5-1.7l-0.1,0c-1.4,1.8-2.9,2.8-4.4,3.1C180.8,32.4,179.7,32.3,178.7,31.7z M184.1,29.4
			c0.6-0.5,1.2-1.1,1.8-2l-0.9-4.2c-2.4,0.8-4,1.6-5,2.5c-0.9,0.8-1.2,1.7-1,2.8c0.2,0.8,0.5,1.4,1.1,1.7c0.6,0.3,1.3,0.4,2,0.2
			C182.9,30.2,183.5,29.8,184.1,29.4z"/>
		<path class="st1" d="M194,28.6c-0.7-0.7-1.2-1.8-1.5-3.3l-1.3-8.3l-2.2,0.3l-0.3-1.6l2.2-0.5l-0.4-4.1l1.8-0.3l0.7,4.1l4-0.6
			l0.3,1.8l-4,0.6l1.3,8.4c0.2,1,0.4,1.6,0.9,2.1c0.4,0.4,1.1,0.6,1.9,0.4c0.4-0.1,1-0.3,1.6-0.7l0.7,1.6c-1,0.5-1.9,0.8-2.5,1
			C195.8,29.5,194.8,29.3,194,28.6z"/>
		<path class="st1" d="M212.3,20.3l-10.1,1.1c0.3,1.7,1,3,2,3.8c1.1,0.8,2.3,1.2,3.7,1c1.3-0.1,2.5-0.7,3.6-1.6l1,1.4
			c-0.7,0.5-1.4,1-2.1,1.3c-0.7,0.4-1.6,0.6-2.5,0.7c-1.3,0.1-2.5,0-3.6-0.5c-1.1-0.5-2-1.3-2.8-2.4c-0.7-1.1-1.2-2.4-1.4-4
			c-0.2-1.5,0-2.9,0.5-4.1c0.5-1.2,1.2-2.2,2.1-2.9c0.9-0.7,2-1.2,3.1-1.3c1.8-0.2,3.3,0.3,4.4,1.4c1.1,1.1,1.8,2.7,2.1,4.8
			C212.3,19.4,212.4,19.9,212.3,20.3z M210.3,18.9c-0.2-1.5-0.6-2.7-1.4-3.4c-0.7-0.7-1.7-1.1-2.9-0.9c-1.1,0.1-2,0.6-2.7,1.5
			c-0.8,0.9-1.1,2.1-1.1,3.7L210.3,18.9z"/>
		<path class="st1" d="M216.1,12l1.8,0l0.2,2.2l0.1,0c1.5-1.7,3-2.6,4.5-2.6c2.1-0.1,3.4,0.9,4.1,2.7c0.8-0.9,1.6-1.7,2.4-2.2
			c0.8-0.5,1.6-0.8,2.4-0.8c3-0.1,4.5,1.8,4.6,5.6l0.2,9.3l-2.2,0.1l-0.2-9c0-1.4-0.3-2.4-0.8-3.1c-0.5-0.6-1.2-0.9-2.2-0.9
			c-1.1,0-2.4,0.8-3.8,2.4l0.3,10.7l-2.2,0.1l-0.2-9c0-1.4-0.3-2.4-0.8-3c-0.5-0.6-1.2-1-2.2-0.9c-1.1,0-2.4,0.8-3.8,2.4l0.3,10.7
			l-2.2,0.1L216.1,12z"/>
		<path class="st1" d="M252.3,20.3l-10.1-0.6c0,1.7,0.4,3.1,1.3,4.1c0.9,1,2,1.5,3.4,1.6c1.3,0.1,2.5-0.2,3.8-1l0.7,1.5
			c-0.8,0.4-1.5,0.7-2.3,1c-0.8,0.2-1.6,0.3-2.6,0.3c-1.3-0.1-2.4-0.5-3.5-1.1c-1-0.7-1.8-1.6-2.3-2.8c-0.5-1.2-0.8-2.6-0.7-4.1
			c0.1-1.5,0.5-2.9,1.2-4c0.7-1.1,1.5-2,2.6-2.6c1-0.6,2.1-0.8,3.3-0.8c1.8,0.1,3.2,0.8,4.1,2.1c0.9,1.3,1.4,3,1.2,5.1
			C252.5,19.5,252.4,20,252.3,20.3z M250.5,18.6c0.1-1.5-0.2-2.8-0.8-3.6c-0.6-0.9-1.5-1.3-2.7-1.4c-1.1-0.1-2.1,0.3-3,1.1
			c-0.9,0.8-1.5,1.9-1.7,3.5L250.5,18.6z"/>
		<path class="st1" d="M257.2,12.9l1.8,0.2l-0.1,2.2l0.1,0c0.9-0.7,1.8-1.2,2.6-1.6c0.8-0.3,1.7-0.5,2.6-0.3
			c1.5,0.2,2.6,0.8,3.2,1.8c0.6,1,0.8,2.5,0.5,4.4l-1.2,9.2l-2.2-0.3l1.1-9c0.2-1.4,0.1-2.4-0.3-3.1c-0.4-0.7-1.1-1.1-2.1-1.2
			c-0.7-0.1-1.4,0-2.1,0.3c-0.7,0.3-1.5,0.8-2.4,1.5l-1.3,10.6l-2.2-0.3L257.2,12.9z"/>
		<path class="st1" d="M272.7,29.1c-0.5-0.9-0.6-2.1-0.3-3.6l1.5-8.3l-2.2-0.4l0.3-1.6l2.3,0.3l1-4l1.8,0.3l-0.7,4.1l4,0.7l-0.3,1.8
			l-4-0.7l-1.5,8.3c-0.2,1-0.1,1.7,0.1,2.2c0.3,0.5,0.8,0.9,1.6,1c0.4,0.1,1,0,1.7-0.1l0.1,1.7c-1.1,0.2-2,0.2-2.7,0.1
			C274.2,30.6,273.2,30,272.7,29.1z"/>
		<path class="st1" d="M285.4,12.3l2.2,0.5l-4.3,19.4l-2.2-0.5L285.4,12.3z"/>
		<path class="st1" d="M289.1,31.8c-0.7-1.6-0.7-3.5,0-5.9c0.4-1.5,1.1-2.7,1.9-3.7c0.9-1,1.9-1.6,3-2c1.1-0.3,2.2-0.4,3.3-0.1
			c0.8,0.2,1.4,0.5,1.9,1c0.5,0.4,1.1,1,1.6,1.8l0.6-2.5L303,15l2.1,0.6l-5.8,20.8l-1.7-0.5l0.3-1.8l-0.1,0
			c-0.8,0.5-1.6,0.8-2.4,0.9c-0.9,0.2-1.7,0.1-2.5-0.1C291,34.4,289.8,33.4,289.1,31.8z M295.9,33.3c0.7-0.2,1.5-0.5,2.3-1l2.1-7.7
			c-0.5-0.7-1-1.3-1.5-1.7c-0.5-0.4-1.1-0.7-1.7-0.9c-0.8-0.2-1.6-0.2-2.4,0.1c-0.8,0.3-1.5,0.8-2.1,1.6c-0.6,0.7-1.1,1.7-1.4,2.7
			c-0.5,1.7-0.5,3.2-0.1,4.4c0.4,1.2,1.3,2,2.6,2.3C294.5,33.4,295.2,33.4,295.9,33.3z"/>
		<path class="st1" d="M306.8,32.2l-2.3-0.8l0.5-1.5l2.5,0.9l2.1-4.2l-2.4-0.9l0.5-1.5l2.6,0.9l2.5-5.1l1.4,0.5l-2.5,5.1l3.9,1.4
			l2.5-5.1l1.4,0.5l-2.5,5.1l2.3,0.8l-0.5,1.5l-2.4-0.9l-2.1,4.2l2.4,0.9l-0.5,1.5l-2.6-0.9l-2.8,5.6l-1.4-0.5l2.8-5.6l-3.9-1.4
			l-2.8,5.6l-1.4-0.5L306.8,32.2z M312.8,32.6l2.1-4.2l-3.9-1.4l-2.1,4.2L312.8,32.6z"/>
		<path class="st1" d="M317.2,40.6l4.1,1.7l5.7-13.5l-3.2-1.4l0.5-1.3c1.6,0.4,3,0.5,4.2,0.3l1.6,0.7l-6.8,16.1l3.7,1.6l-0.7,1.7
			l-9.8-4.1L317.2,40.6z"/>
	</g>
</g>
</svg>
